<svg width="1323" height="46" viewBox="0 0 1323 46" fill="none" xmlns="http://www.w3.org/2000/svg">
<path d="M1291.4 43.2543C1291.12 43.5396 1290.76 43.6822 1290.37 43.6822C1289.98 43.6822 1289.62 43.5396 1289.33 43.2543C1288.76 42.6838 1288.76 41.7566 1289.33 41.1861L1307.52 23L1289.33 4.814C1288.76 4.24345 1288.76 3.31632 1289.33 2.74578C1289.9 2.17524 1290.83 2.17524 1291.4 2.74578L1310.62 21.9659C1311.19 22.5365 1311.19 23.4636 1310.62 24.0342L1291.4 43.2543Z" fill="#6C6F7F"/>
<path d="M31.5976 2.74569C31.8829 2.46042 32.2395 2.31779 32.6317 2.31779C33.024 2.31779 33.3806 2.46042 33.6658 2.74569C34.2364 3.31624 34.2364 4.24337 33.6658 4.81391L15.4798 23L33.6658 41.186C34.2364 41.7565 34.2364 42.6837 33.6658 43.2542C33.0953 43.8248 32.1682 43.8248 31.5976 43.2542L12.3775 24.0341C11.8069 23.4635 11.8069 22.5364 12.3775 21.9658L31.5976 2.74569Z" fill="#6C6F7F"/>
</svg>
