<svg width="27" height="28" viewBox="0 0 27 28" fill="none" xmlns="http://www.w3.org/2000/svg">
<g clip-path="url(#clip0_5858_532)">
<path d="M0.421875 14.25C0.421875 7.02539 6.27539 1.17188 13.5 1.17188C20.7246 1.17188 26.5781 7.02539 26.5781 14.25C26.5781 21.4746 20.7246 27.3281 13.5 27.3281C6.27539 27.3281 0.421875 21.4746 0.421875 14.25ZM13.5 25.6406C19.7596 25.6406 24.8906 20.5729 24.8906 14.25C24.8906 7.99043 19.8229 2.85938 13.5 2.85938C7.24043 2.85938 2.10938 7.92715 2.10938 14.25C2.10938 20.5096 7.17715 25.6406 13.5 25.6406ZM14.1592 20.7627L20.2289 14.6982C20.4768 14.4504 20.4768 14.0496 20.2289 13.8018L14.1592 7.7373C13.9113 7.48945 13.5105 7.48945 13.2627 7.7373L12.8988 8.10117C12.651 8.34902 12.651 8.76035 12.9094 9.00293L17.4182 13.3535H7.38281C7.03477 13.3535 6.75 13.6383 6.75 13.9863V14.5137C6.75 14.8617 7.03477 15.1465 7.38281 15.1465H17.4182L12.9041 19.4971C12.651 19.7449 12.6457 20.151 12.8936 20.3988L13.2574 20.7627C13.5105 21.0105 13.9113 21.0105 14.1592 20.7627Z" fill="#B26519"/>
</g>
<defs>
<clipPath id="clip0_5858_532">
<rect width="27" height="27" fill="white" transform="matrix(-1 0 0 1 27 0.75)"/>
</clipPath>
</defs>
</svg>
