<svg width="262" height="60" viewBox="0 0 262 60" fill="none" xmlns="http://www.w3.org/2000/svg">
<rect width="60" height="60" rx="30" fill="#89C249"/>
<rect x="102" y="1" width="58" height="58" rx="29" fill="#282B38" stroke="#363A4D" stroke-width="2"/>
<rect x="203" y="1" width="58" height="58" rx="29" fill="#282B38" stroke="#363A4D" stroke-width="2"/>
<path d="M32.3464 37H28.9384V25.384L26.2744 28.096L24.3304 26.056L29.3704 20.992H32.3464V37Z" fill="white"/>
<path d="M136.481 38H124.433V35.336C127.857 32.792 130.121 30.984 131.225 29.912C132.345 28.824 132.905 27.808 132.905 26.864C132.905 26.208 132.649 25.696 132.137 25.328C131.625 24.96 131.017 24.776 130.313 24.776C128.633 24.776 127.201 25.392 126.017 26.624L124.073 24.368C124.825 23.504 125.745 22.856 126.833 22.424C127.937 21.976 129.073 21.752 130.241 21.752C132.001 21.752 133.457 22.216 134.609 23.144C135.777 24.072 136.361 25.312 136.361 26.864C136.361 28.176 135.841 29.464 134.801 30.728C133.777 31.976 132.161 33.4 129.953 35H136.481V38Z" fill="#BFBFBF"/>
<path d="M231.249 38.288C229.841 38.288 228.593 38.056 227.505 37.592C226.417 37.112 225.561 36.488 224.937 35.72L226.713 33.44C227.257 34 227.929 34.448 228.729 34.784C229.529 35.104 230.329 35.264 231.129 35.264C232.089 35.264 232.833 35.08 233.361 34.712C233.889 34.328 234.153 33.832 234.153 33.224C234.153 32.584 233.897 32.12 233.385 31.832C232.873 31.528 232.057 31.376 230.937 31.376C229.929 31.376 229.265 31.392 228.945 31.424V28.352C229.137 28.368 229.801 28.376 230.937 28.376C232.905 28.376 233.889 27.808 233.889 26.672C233.889 26.064 233.609 25.6 233.049 25.28C232.505 24.944 231.793 24.776 230.913 24.776C229.361 24.776 228.009 25.328 226.857 26.432L225.153 24.296C226.657 22.6 228.697 21.752 231.273 21.752C233.145 21.752 234.617 22.144 235.689 22.928C236.777 23.712 237.321 24.768 237.321 26.096C237.321 27.056 236.977 27.864 236.289 28.52C235.601 29.16 234.777 29.568 233.817 29.744C234.761 29.84 235.617 30.232 236.385 30.92C237.169 31.592 237.561 32.48 237.561 33.584C237.561 34.976 236.985 36.112 235.833 36.992C234.681 37.856 233.153 38.288 231.249 38.288Z" fill="#BFBFBF"/>
</svg>
